<?xml version="1.0"?>
<!DOCTYPE svg PUBLIC "-//W3C//DTD SVG 1.1//EN" "http://www.w3.org/Graphics/SVG/1.1/DTD/svg11.dtd">
<svg width="151.07782640120053mm" height="145.6193476262761mm" viewBox="0 0 151.07782640120053 145.6193476262761" xmlns="http://www.w3.org/2000/svg" version="1.1">
<g id="Part__Part2DObjectPython008" transform="translate(156.881155,147.356155) scale(1,-1)">
<path id="Part__Part2DObjectPython008_w0000"  d="M -12.769765294630181 88.01379439375336 L -32.10000000000001 88.01379439375336 A 3 3 0 0 0 -35.1 91.0138L -35.100000000000016 140.38971862576142 A 3 3 0 0 1 -35.9787 142.511L -38.46396103067892 144.9963203435596 A 3 3 0 0 1 -40.5853 145.875L -149.9147186257614 145.87499999999997 A 3 3 0 0 1 -152.036 144.996L -154.5213203435596 142.51103896932108 A 3 3 0 0 1 -155.4 140.39L -155.39999999999998 59.635281374238595 A 3 3 0 0 1 -154.521 57.514L -152.03603896932105 55.02867965644036 A 3 3 0 0 1 -149.915 54.15L -76.81385036191523 54.15 A 3 3 0 0 0 -75.3139 53.7481L -63.31385036191523 46.81987298107781 A 3 3 0 0 0 -61.8139 44.2218L -61.81385036191523 33.5084660579064 A 3 3 0 0 1 -60.3139 30.9104L -51.57856641982166 25.86707131113755 A 3 3 0 0 0 -50.0786 23.269L -50.07856641982167 15.73457408685961 A 3 3 0 0 1 -48.5786 13.1365L -32.080782477728135 3.611497875506273 A 3 3 0 0 1 -27.9827 4.70957L -7.686407709038293 39.86379439375336 A 3 3 0 0 1 -7.28448 41.3638L -7.284483920391608 82.52851301951478 A 3 3 0 0 1 -8.16316 84.6498L -10.648444951070534 87.13511473731299 A 3 3 0 0 1 -12.7698 88.0138L -12.769765294630187 85.01379439375337 L -10.284483920391612 82.52851301951478 L -10.284483920391606 58.528513019514776 L -7.284483920391608 58.528513019514776 " stroke="#212529" stroke-width="0.7 px" style="stroke-width:0.7;stroke-miterlimit:4;stroke-dasharray:none;stroke-linecap:square;fill:none;fill-opacity:1;fill-rule: evenodd"/>
<path id="Part__Part2DObjectPython008_w0001"  d="M -152.39999999999995 114.29999999999981 L -133.34999999999994 114.29999999999981 L -133.34999999999994 133.34999999999982 L -152.39999999999995 133.34999999999982 L -152.39999999999995 114.29999999999981 " stroke="#212529" stroke-width="0.7 px" style="stroke-width:0.7;stroke-miterlimit:4;stroke-dasharray:none;stroke-linecap:square;fill:none;fill-opacity:1;fill-rule: evenodd"/>
<path id="Part__Part2DObjectPython008_w0002"  d="M -22.769765294630183 88.01379439375336 L -22.769765294630183 85.01379439375336 L -32.10000000000001 85.01379439375336 A 6 6 0 0 0 -38.1 91.0138L -38.10000000000002 140.38971862576142 L -40.58528137423857 142.87499999999997 L -149.9147186257614 142.87499999999997 L -152.39999999999998 140.38971862576142 L -152.39999999999998 59.635281374238595 L -149.9147186257614 57.15 L -76.81385036191523 57.15 A 6 6 0 0 0 -73.8139 56.3462L -61.81385036191523 49.417949192431124 A 6 6 0 0 0 -58.8139 44.2218L -58.81385036191523 33.5084660579064 L -50.07856641982166 28.465147522490867 A 6 6 0 0 0 -47.0786 23.269L -47.07856641982166 15.734574086859606 L -30.580782477728132 6.2095740868595835 L -10.284483920391606 41.363794393753366 L -10.284483920391608 48.528513019514776 L -7.284483920391608 48.528513019514776 " stroke="#212529" stroke-width="0.7 px" style="stroke-width:0.7;stroke-miterlimit:4;stroke-dasharray:none;stroke-linecap:square;fill:none;fill-opacity:1;fill-rule: evenodd"/>
<circle cx="-144.331296" cy="138.084516" r="4.0" stroke="#212529" stroke-width="0.7 px" style="stroke-width:0.7;stroke-miterlimit:4;stroke-dasharray:none;stroke-linecap:square;fill:none"/>
<circle cx="-46.636369" cy="138.018701" r="4.0" stroke="#212529" stroke-width="0.7 px" style="stroke-width:0.7;stroke-miterlimit:4;stroke-dasharray:none;stroke-linecap:square;fill:none"/>
<circle cx="-86.842196" cy="61.923716" r="4.0" stroke="#212529" stroke-width="0.7 px" style="stroke-width:0.7;stroke-miterlimit:4;stroke-dasharray:none;stroke-linecap:square;fill:none"/>
<circle cx="-35.779596" cy="49.681216" r="4.0" stroke="#212529" stroke-width="0.7 px" style="stroke-width:0.7;stroke-miterlimit:4;stroke-dasharray:none;stroke-linecap:square;fill:none"/>
<title>b'Part__Part2DObjectPython008'</title>
</g>
</svg>