<?xml version="1.0"?>
<!DOCTYPE svg PUBLIC "-//W3C//DTD SVG 1.1//EN" "http://www.w3.org/Graphics/SVG/1.1/DTD/svg11.dtd">
<svg width="144.95782640119336mm" height="139.50773623473233mm" viewBox="0 0 144.95782640119336 139.50773623473233" xmlns="http://www.w3.org/2000/svg" version="1.1">
<g id="Part__Part2DObjectPython009" transform="translate(153.821155,144.296155) scale(1,-1)">
<path id="Part__Part2DObjectPython009_w0000"  d="M -152.39999999999998 57.14999999999985 L -152.39999999999998 133.34999999999985 L -114.29999999999998 133.34999999999985 L -114.29999999999998 138.11249999999987 L -95.24999999999997 138.11249999999987 L -95.24999999999997 142.87499999999986 L -76.19999999999997 142.87499999999986 L -76.19999999999997 138.1124999999998 L -57.14999999999997 138.1124999999998 L -57.15 133.34999999999982 L -38.1 133.34999999999982 L -38.1 57.150000000000006 L -57.14999999999996 57.150000000000006 L -57.14999999999996 61.9124999999999 L -76.20000000000024 61.9124999999999 L -76.20000000000023 66.67499999999991 L -95.24999999999883 66.67499999999991 L -95.24999999999876 61.91249999999991 L -114.29999999999988 61.91249999999991 L -114.29999999999981 57.149999999999906 L -152.39999999999998 57.14999999999985 " stroke="#212529" stroke-width="0.7 px" style="stroke-width:0.7;stroke-miterlimit:4;stroke-dasharray:none;stroke-linecap:square;fill:none;fill-opacity:1;fill-rule: evenodd"/>
<path id="Part__Part2DObjectPython009_w0001"  d="M -58.813850361915236 33.508466057906325 L -49.28885036191523 50.00624999999988 L -16.29328247772812 30.95624999999988 L -30.580782477728114 6.209574086859544 L -47.07856641982168 15.734574086859546 L -42.31606641982168 23.983466057906323 L -58.813850361915236 33.508466057906325 " stroke="#212529" stroke-width="0.7 px" style="stroke-width:0.7;stroke-miterlimit:4;stroke-dasharray:none;stroke-linecap:square;fill:none;fill-opacity:1;fill-rule: evenodd"/>
<path id="Part__Part2DObjectPython009_w0002"  d="M -23.27486497716522 52.913794393741114 L -29.27486497716522 42.52148954832785 L -16.28448392039864 35.02148954832785 L -10.28448392039864 45.413794393741114 L -23.27486497716522 52.913794393741114 " stroke="#212529" stroke-width="0.7 px" style="stroke-width:0.7;stroke-miterlimit:4;stroke-dasharray:none;stroke-linecap:square;fill:none;fill-opacity:1;fill-rule: evenodd"/>
<title>b'Part__Part2DObjectPython009'</title>
</g>
</svg>